<svg xmlns="http://www.w3.org/2000/svg" xmlns:xlink="http://www.w3.org/1999/xlink" width="162" height="197" viewBox="0 0 162 197">
  <defs>
    <filter id="B" x="0" y="16" width="114" height="181" filterUnits="userSpaceOnUse">
      <feOffset dy="3" input="SourceAlpha"/>
      <feGaussianBlur stdDeviation="3" result="blur"/>
      <feFlood flood-opacity="0.161"/>
      <feComposite operator="in" in2="blur"/>
      <feComposite in="SourceGraphic"/>
    </filter>
  </defs>
  <g id="logo" transform="translate(-74 -24)">
    <g id="Group_11" data-name="Group 11">
      <rect id="Rectangle_9" data-name="Rectangle 9" width="135" height="136" rx="67.5" transform="translate(90 51)" fill="#f8f8f8"/>
      <path id="Subtraction_4" data-name="Subtraction 4" d="M46.348,106.772H.838A6.791,6.791,0,0,0-4.4,103.221V98.185C-.735,97.9,2.137,94.171,2.137,89.7S-.736,81.511-4.4,81.222V76.185C-.735,75.9,2.137,72.17,2.137,67.7S-.736,59.51-4.4,59.221V54.185C-.735,53.9,2.137,50.17,2.137,45.7S-.736,37.511-4.4,37.221V32.185C-.735,31.9,2.137,28.17,2.137,23.7S-.736,15.51-4.4,15.221V10.185C-.735,9.9,2.137,6.17,2.137,1.7A8.718,8.718,0,0,0-2.082-6.1h48.43v112.87Z" transform="translate(119.176 57.589) rotate(16)" fill="#08ff00"/>
      <g transform="matrix(1, 0, 0, 1, 74, 24)" filter="url(#B)">
        <text id="B-2" data-name="B" transform="translate(13 142)" font-size="132" font-family="InkFree, Ink Free"><tspan x="0" y="0">B</tspan></text>
      </g>
      <text id="E" transform="translate(157 145)" font-size="133" font-family="InkFree, Ink Free"><tspan x="0" y="0">E</tspan></text>
    </g>
  </g>
</svg>
